<?xml version="1.0" encoding="utf-8"?>
<!-- Generator: Adobe Illustrator 19.0.0, SVG Export Plug-In . SVG Version: 6.00 Build 0)  -->
<svg version="1.1" id="Layer_1" xmlns="http://www.w3.org/2000/svg" xmlns:xlink="http://www.w3.org/1999/xlink" x="0px" y="0px"
	 viewBox="-293 382 24 30" style="enable-background:new -293 382 24 30;" xml:space="preserve">
<style type="text/css">
	.st0{fill:#7C7C7C;}
	.st1{enable-background:new    ;}
</style>
<path class="st0" d="M-286,394h9v1h-9V394 M-281.5,385c5.2,0,9.5,4.2,9.5,9.5s-4.2,9.5-9.5,9.5s-9.5-4.2-9.5-9.5
	S-286.8,385-281.5,385 M-281.5,386c-4.7,0-8.5,3.8-8.5,8.5s3.8,8.5,8.5,8.5s8.5-3.8,8.5-8.5S-276.8,386-281.5,386z"/>
<text transform="matrix(1 0 0 1 -293 421)" style="font-family:'HelveticaNeue-Bold'; font-size:5px;">Created by Austin Andrews</text>
<text transform="matrix(1 0 0 1 -293 426)" style="font-family:'HelveticaNeue-Bold'; font-size:5px;">from the Noun Project</text>
</svg>
