<svg xmlns="http://www.w3.org/2000/svg" xmlns:xlink="http://www.w3.org/1999/xlink" version="1.1" viewBox="0 0 24 30" x="0px" y="0px"><path d="M7,12H16V13H7V12M11.5,3C16.75,3 21,7.25 21,12.5C21,17.75 16.75,22 11.5,22C6.25,22 2,17.75 2,12.5C2,7.25 6.25,3 11.5,3M11.5,4C6.81,4 3,7.81 3,12.5C3,17.19 6.81,21 11.5,21C16.19,21 20,17.19 20,12.5C20,7.81 16.19,4 11.5,4Z"/><text x="0" y="39" fill="#000000" font-size="5px" font-weight="bold" font-family="'Helvetica Neue', Helvetica, Arial-Unicode, Arial, Sans-serif">Created by Austin Andrews</text><text x="0" y="44" fill="#000000" font-size="5px" font-weight="bold" font-family="'Helvetica Neue', Helvetica, Arial-Unicode, Arial, Sans-serif">from the Noun Project</text></svg>